<svg xmlns="http://www.w3.org/2000/svg" xmlns:xlink="http://www.w3.org/1999/xlink" viewBox="0 0 2208 1413.32"><defs><style>.cls-1{isolation:isolate;}.cls-2{fill:none;}.cls-3,.cls-4,.cls-5,.cls-6,.cls-7{mix-blend-mode:screen;}.cls-3{fill:url(#radial-gradient);}.cls-4{fill:url(#radial-gradient-2);}.cls-5{fill:url(#radial-gradient-3);}.cls-6{fill:url(#radial-gradient-4);}.cls-7{fill:url(#radial-gradient-5);}</style><radialGradient id="radial-gradient" cx="1448.99" cy="3055.03" r="150.65" gradientTransform="translate(-900.68 50.6) rotate(-56.33) scale(0.44)" gradientUnits="userSpaceOnUse"><stop offset="0" stop-color="#fff"/><stop offset="0.01" stop-color="#fffef8"/><stop offset="0.1" stop-color="#fcf6ca"/><stop offset="0.17" stop-color="#fbf2ad"/><stop offset="0.21" stop-color="#faf0a2"/><stop offset="0.22" stop-color="#f5e498"/><stop offset="0.27" stop-color="#e5bd76"/><stop offset="0.31" stop-color="#d79d59"/><stop offset="0.36" stop-color="#cc8444"/><stop offset="0.41" stop-color="#c57234"/><stop offset="0.47" stop-color="#c0672b"/><stop offset="0.53" stop-color="#bf6428"/><stop offset="0.58" stop-color="#a05421"/><stop offset="0.71" stop-color="#4a2710"/><stop offset="0.81" stop-color="#150b04"/><stop offset="0.85"/></radialGradient><radialGradient id="radial-gradient-2" cx="1065.58" cy="2020.65" r="78.9" xlink:href="#radial-gradient"/><radialGradient id="radial-gradient-3" cx="2670.5" cy="4683.59" r="115.11" xlink:href="#radial-gradient"/><radialGradient id="radial-gradient-4" cx="2466.3" cy="6018.73" r="179.65" xlink:href="#radial-gradient"/><radialGradient id="radial-gradient-5" cx="118.01" cy="3453.57" r="74.84" xlink:href="#radial-gradient"/></defs><g class="cls-1"><g id="图层_2" data-name="图层 2"><g id="Layer_1" data-name="Layer 1"><rect class="cls-2" x="397.34" y="-397.34" width="1413.32" height="2208" transform="translate(1810.66 -397.34) rotate(90)"/><path id="_1" data-name="1" class="cls-3" d="M623.33,211.69a66.95,66.95,0,1,1-92.83,18.6A66.95,66.95,0,0,1,623.33,211.69Z"/><path id="_1-2" data-name="1" class="cls-4" d="M128.63,125.18A35.06,35.06,0,1,1,80,134.92,35.05,35.05,0,0,1,128.63,125.18Z"/><path id="_1-3" data-name="1" class="cls-5" d="M1517.86,174.32a51.15,51.15,0,1,1-70.93,14.21A51.15,51.15,0,0,1,1517.86,174.32Z"/><path id="_1-4" data-name="1" class="cls-6" d="M1977.25,554.93a79.84,79.84,0,1,1-110.71,22.17A79.84,79.84,0,0,1,1977.25,554.93Z"/><path id="_1-5" data-name="1" class="cls-7" d="M424.12,830.18A33.26,33.26,0,1,1,378,839.42,33.25,33.25,0,0,1,424.12,830.18Z"/></g></g></g></svg>