<svg xmlns="http://www.w3.org/2000/svg" xmlns:xlink="http://www.w3.org/1999/xlink" viewBox="0 0 253.05 500.22"><defs><style>.cls-1{isolation:isolate;}.cls-10,.cls-11,.cls-12,.cls-13,.cls-14,.cls-15,.cls-16,.cls-17,.cls-18,.cls-19,.cls-2,.cls-20,.cls-21,.cls-22,.cls-3,.cls-30,.cls-31,.cls-32,.cls-33,.cls-34,.cls-35,.cls-36,.cls-37,.cls-38,.cls-4,.cls-41,.cls-5,.cls-6,.cls-7,.cls-8,.cls-9{mix-blend-mode:screen;}.cls-2{fill:url(#radial-gradient);}.cls-24,.cls-3,.cls-4,.cls-5{opacity:0.2;}.cls-3{fill:url(#radial-gradient-2);}.cls-4{fill:url(#radial-gradient-3);}.cls-5{fill:url(#radial-gradient-4);}.cls-6{fill:url(#radial-gradient-5);}.cls-7{fill:url(#radial-gradient-6);}.cls-8{fill:url(#radial-gradient-7);}.cls-10,.cls-16,.cls-17,.cls-18,.cls-9{opacity:0.3;}.cls-9{fill:url(#radial-gradient-8);}.cls-10{fill:url(#radial-gradient-9);}.cls-11,.cls-12,.cls-13{opacity:0.7;}.cls-11{fill:url(#radial-gradient-10);}.cls-12{fill:url(#radial-gradient-11);}.cls-13{fill:url(#radial-gradient-12);}.cls-14{fill:url(#radial-gradient-13);}.cls-15,.cls-46{opacity:0.5;}.cls-15{fill:url(#radial-gradient-14);}.cls-16{fill:url(#radial-gradient-15);}.cls-17{fill:url(#radial-gradient-16);}.cls-18{fill:url(#radial-gradient-17);}.cls-19,.cls-21,.cls-22,.cls-23,.cls-25,.cls-26,.cls-27,.cls-28,.cls-29,.cls-30,.cls-32,.cls-33,.cls-34,.cls-36,.cls-37{opacity:0.4;}.cls-19{fill:url(#radial-gradient-18);}.cls-20,.cls-38,.cls-39,.cls-40,.cls-41{opacity:0.6;}.cls-20{fill:url(#radial-gradient-19);}.cls-21{fill:url(#radial-gradient-20);}.cls-22{fill:url(#radial-gradient-21);}.cls-23,.cls-24,.cls-25,.cls-26,.cls-27,.cls-28,.cls-29,.cls-39,.cls-40,.cls-42,.cls-43,.cls-44,.cls-45,.cls-46,.cls-47,.cls-48,.cls-49,.cls-50,.cls-51,.cls-52,.cls-53,.cls-54,.cls-55,.cls-56,.cls-57,.cls-58,.cls-59,.cls-60,.cls-61,.cls-62{mix-blend-mode:color-dodge;}.cls-23{fill:url(#radial-gradient-22);}.cls-24{fill:url(#radial-gradient-23);}.cls-25{fill:url(#radial-gradient-24);}.cls-26{fill:url(#radial-gradient-25);}.cls-27{fill:url(#radial-gradient-26);}.cls-28{fill:url(#radial-gradient-27);}.cls-29{fill:url(#radial-gradient-28);}.cls-30{fill:url(#radial-gradient-29);}.cls-31{opacity:0.8;fill:url(#radial-gradient-30);}.cls-32{fill:url(#radial-gradient-31);}.cls-33{fill:url(#radial-gradient-32);}.cls-34{fill:url(#radial-gradient-33);}.cls-35{fill:url(#radial-gradient-34);}.cls-36{fill:url(#radial-gradient-35);}.cls-37{fill:url(#radial-gradient-36);}.cls-38{fill:url(#radial-gradient-37);}.cls-39{fill:url(#radial-gradient-38);}.cls-40{fill:url(#radial-gradient-39);}.cls-41{fill:url(#radial-gradient-40);}.cls-42{fill:url(#radial-gradient-41);}.cls-43{fill:url(#radial-gradient-42);}.cls-44{fill:url(#radial-gradient-43);}.cls-45{fill:url(#radial-gradient-44);}.cls-46{fill:url(#radial-gradient-45);}.cls-47{fill:url(#radial-gradient-46);}.cls-48{fill:url(#radial-gradient-47);}.cls-49{fill:url(#radial-gradient-48);}.cls-50{fill:url(#radial-gradient-49);}.cls-51{fill:url(#radial-gradient-50);}.cls-52{fill:url(#radial-gradient-51);}.cls-53{fill:url(#radial-gradient-52);}.cls-54{fill:url(#radial-gradient-53);}.cls-55{fill:url(#radial-gradient-54);}.cls-56{fill:url(#radial-gradient-55);}.cls-57{fill:url(#radial-gradient-56);}.cls-58{fill:url(#radial-gradient-57);}.cls-59{fill:url(#radial-gradient-58);}.cls-60{fill:url(#radial-gradient-59);}.cls-61{fill:url(#radial-gradient-60);}.cls-62{fill:url(#radial-gradient-61);}</style><radialGradient id="radial-gradient" cx="94.34" cy="76.41" r="150.65" gradientTransform="translate(74.38 389.69) rotate(-56.33) scale(0.44)" gradientUnits="userSpaceOnUse"><stop offset="0" stop-color="#fff"/><stop offset="0.01" stop-color="#fffef8"/><stop offset="0.1" stop-color="#fcf6ca"/><stop offset="0.17" stop-color="#fbf2ad"/><stop offset="0.21" stop-color="#faf0a2"/><stop offset="0.22" stop-color="#f5e498"/><stop offset="0.27" stop-color="#e5bd76"/><stop offset="0.31" stop-color="#d79d59"/><stop offset="0.36" stop-color="#cc8444"/><stop offset="0.41" stop-color="#c57234"/><stop offset="0.47" stop-color="#c0672b"/><stop offset="0.53" stop-color="#bf6428"/><stop offset="0.58" stop-color="#a05421"/><stop offset="0.71" stop-color="#4a2710"/><stop offset="0.81" stop-color="#150b04"/><stop offset="0.85"/></radialGradient><radialGradient id="radial-gradient-2" cx="-29.64" cy="213.19" r="131.22" gradientTransform="matrix(0.29, -0.34, 0.34, 0.29, 65.6, 363.55)" gradientUnits="userSpaceOnUse"><stop offset="0.34" stop-color="#40210d"/><stop offset="0.37" stop-color="#46240e"/><stop offset="0.41" stop-color="#572d12"/><stop offset="0.45" stop-color="#723c18"/><stop offset="0.49" stop-color="#985020"/><stop offset="0.53" stop-color="#bf6428"/><stop offset="0.57" stop-color="#9c5221"/><stop offset="0.64" stop-color="#653515"/><stop offset="0.71" stop-color="#391e0c"/><stop offset="0.77" stop-color="#1a0e05"/><stop offset="0.82" stop-color="#070401"/><stop offset="0.85"/></radialGradient><radialGradient id="radial-gradient-3" cx="-85.43" cy="261.25" r="72.71" xlink:href="#radial-gradient-2"/><radialGradient id="radial-gradient-4" cx="127.14" cy="36.37" r="110.61" gradientTransform="translate(74.38 389.69) rotate(-56.33) scale(0.44)" xlink:href="#radial-gradient-2"/><radialGradient id="radial-gradient-5" cx="1406.02" cy="-6167.11" r="102.15" gradientTransform="matrix(-0.72, -0.48, 0.05, -0.07, 1431.46, 614.5)" gradientUnits="userSpaceOnUse"><stop offset="0" stop-color="#faf0a2"/><stop offset="0.01" stop-color="#f6e599"/><stop offset="0.1" stop-color="#deae69"/><stop offset="0.17" stop-color="#cd8645"/><stop offset="0.22" stop-color="#c36d30"/><stop offset="0.25" stop-color="#bf6428"/><stop offset="0.26" stop-color="#be6328"/><stop offset="0.42" stop-color="#733c18"/><stop offset="0.47" stop-color="#623314"/><stop offset="0.65" stop-color="#2d1809"/><stop offset="0.78" stop-color="#0c0603"/><stop offset="0.85"/></radialGradient><radialGradient id="radial-gradient-6" cx="730.71" cy="-2277.72" r="102.19" gradientTransform="matrix(0.28, -0.82, 0.08, 0.03, 105.94, 1038.22)" xlink:href="#radial-gradient-5"/><radialGradient id="radial-gradient-7" cx="1746.63" cy="1781.68" r="102.17" gradientTransform="matrix(-0.7, 1.06, -0.04, -0.03, 1429.24, -1417.01)" xlink:href="#radial-gradient-5"/><radialGradient id="radial-gradient-8" cx="1669.01" cy="-6166.72" r="102.16" gradientTransform="matrix(-1.24, 0.27, -0.01, -0.05, 2126.86, -382.01)" xlink:href="#radial-gradient-5"/><radialGradient id="radial-gradient-9" cx="1601.43" cy="2577.45" r="82.74" gradientTransform="matrix(0.16, 1.26, -0.18, 0.02, 319.48, -1695.58)" xlink:href="#radial-gradient-5"/><radialGradient id="radial-gradient-10" cx="1096.35" cy="2911.67" r="92.82" gradientTransform="matrix(1.24, 0.25, -0.03, 0.17, -1136.42, -398.75)" xlink:href="#radial-gradient-5"/><radialGradient id="radial-gradient-11" cx="1426.55" cy="3246.05" r="51.99" gradientTransform="matrix(0.7, 1.06, -0.15, 0.1, -395.56, -1447.69)" xlink:href="#radial-gradient-5"/><radialGradient id="radial-gradient-12" cx="941.51" cy="1801.78" r="72.15" gradientTransform="matrix(1.21, -0.39, 0.05, 0.17, -1107.01, 441.07)" xlink:href="#radial-gradient-5"/><radialGradient id="radial-gradient-13" cx="-10847.54" cy="-729.28" r="137.23" gradientTransform="matrix(0.25, 0.25, -0.21, 0.42, 2715.36, 3369.3)" gradientUnits="userSpaceOnUse"><stop offset="0.15" stop-color="#ffdc85"/><stop offset="0.21" stop-color="#d9bc71"/><stop offset="0.35" stop-color="#8d7a4a"/><stop offset="0.48" stop-color="#51452a"/><stop offset="0.59" stop-color="#252013"/><stop offset="0.67" stop-color="#0a0905"/><stop offset="0.72"/></radialGradient><radialGradient id="radial-gradient-14" cx="795.65" cy="361.4" r="210.47" gradientTransform="matrix(-0.24, -0.24, 0.12, -0.68, 269.36, 678.88)" gradientUnits="userSpaceOnUse"><stop offset="0" stop-color="#ffdc85"/><stop offset="0.09" stop-color="#edcd7c"/><stop offset="0.28" stop-color="#bea463"/><stop offset="0.54" stop-color="#73633c"/><stop offset="0.86" stop-color="#0c0b06"/><stop offset="0.9"/></radialGradient><radialGradient id="radial-gradient-15" cx="854.95" cy="452.67" r="189.07" gradientTransform="matrix(-0.24, -0.24, 0.13, -0.73, 268.4, 684.49)" gradientUnits="userSpaceOnUse"><stop offset="0" stop-color="#ff9000"/><stop offset="0.09" stop-color="#ed8600"/><stop offset="0.28" stop-color="#be6b00"/><stop offset="0.54" stop-color="#734100"/><stop offset="0.86" stop-color="#0c0700"/><stop offset="0.9"/></radialGradient><radialGradient id="radial-gradient-16" cx="611.59" cy="318.38" r="136.84" xlink:href="#radial-gradient-15"/><radialGradient id="radial-gradient-17" cx="828.57" cy="225.12" r="82.43" xlink:href="#radial-gradient-15"/><radialGradient id="radial-gradient-18" cx="-10540.6" cy="-603" r="94.9" gradientTransform="matrix(0.12, 0.06, -0.04, 0.35, 1364.33, 1203.07)" gradientUnits="userSpaceOnUse"><stop offset="0" stop-color="#d45800"/><stop offset="0.27" stop-color="#8d3b00"/><stop offset="0.52" stop-color="#502100"/><stop offset="0.74" stop-color="#250f00"/><stop offset="0.9" stop-color="#0a0400"/><stop offset="1"/></radialGradient><radialGradient id="radial-gradient-19" cx="-10475.8" cy="-1023.77" r="52.55" xlink:href="#radial-gradient-18"/><radialGradient id="radial-gradient-20" cx="-10328.9" cy="-837.94" r="52.55" gradientTransform="matrix(0.12, 0.06, -0.04, 0.35, 1364.33, 1203.07)" gradientUnits="userSpaceOnUse"><stop offset="0" stop-color="#ffdc85"/><stop offset="0.11" stop-color="#d9bc71"/><stop offset="0.36" stop-color="#8d7a4a"/><stop offset="0.58" stop-color="#51452a"/><stop offset="0.77" stop-color="#252013"/><stop offset="0.91" stop-color="#0a0905"/><stop offset="1"/></radialGradient><radialGradient id="radial-gradient-21" cx="-10710.8" cy="-666.47" r="52.55" xlink:href="#radial-gradient-20"/><radialGradient id="radial-gradient-22" cx="-10627.49" cy="-1122.62" r="52.56" xlink:href="#radial-gradient-20"/><radialGradient id="radial-gradient-23" cx="-10702.93" cy="-1338.94" r="52.56" xlink:href="#radial-gradient-20"/><radialGradient id="radial-gradient-24" cx="-10231.34" cy="-944.56" r="88.64" xlink:href="#radial-gradient-20"/><radialGradient id="radial-gradient-25" cx="-10858.22" cy="-794.08" r="73.11" xlink:href="#radial-gradient-20"/><radialGradient id="radial-gradient-26" cx="-11225.7" cy="-704.39" r="52.57" gradientTransform="matrix(0.07, 0.05, -0.05, 0.34, 899.27, 1101.1)" xlink:href="#radial-gradient-20"/><radialGradient id="radial-gradient-27" cx="-11403.09" cy="-747.15" r="52.56" gradientTransform="matrix(0.07, 0.08, -0.08, 0.74, 871.28, 1748.46)" xlink:href="#radial-gradient-20"/><radialGradient id="radial-gradient-28" cx="-10973.37" cy="-851.67" r="35.37" gradientTransform="matrix(0.07, 0.08, -0.08, 0.74, 871.28, 1748.46)" xlink:href="#radial-gradient-20"/><radialGradient id="radial-gradient-29" cx="-10372.96" cy="-1006.81" r="137.22" gradientTransform="matrix(0.12, 0.06, -0.04, 0.35, 1364.33, 1203.07)" gradientUnits="userSpaceOnUse"><stop offset="0" stop-color="#ffdc85"/><stop offset="0.08" stop-color="#d9bc71"/><stop offset="0.26" stop-color="#8d7a4a"/><stop offset="0.42" stop-color="#51452a"/><stop offset="0.56" stop-color="#252013"/><stop offset="0.66" stop-color="#0a0905"/><stop offset="0.72"/></radialGradient><radialGradient id="radial-gradient-30" cx="-10661.95" cy="-819.98" r="105.01" gradientTransform="matrix(0.1, 0.06, -0.05, 0.35, 1132.4, 1152.32)" xlink:href="#radial-gradient-29"/><radialGradient id="radial-gradient-31" cx="-10753.72" cy="-1268.72" r="137.21" gradientTransform="matrix(0.1, 0.06, -0.05, 0.35, 1156.93, 1157.59)" xlink:href="#radial-gradient-29"/><radialGradient id="radial-gradient-32" cx="-10075.5" cy="-748.95" r="137.22" xlink:href="#radial-gradient-29"/><radialGradient id="radial-gradient-33" cx="-10164.85" cy="-705.65" r="232.67" xlink:href="#radial-gradient-29"/><radialGradient id="radial-gradient-34" cx="-10315.96" cy="-748.4" r="137.23" gradientTransform="matrix(0.12, 0.06, -0.04, 0.35, 1364.33, 1203.07)" gradientUnits="userSpaceOnUse"><stop offset="0" stop-color="#ba4d00"/><stop offset="0.19" stop-color="#8c3a00"/><stop offset="0.47" stop-color="#502100"/><stop offset="0.71" stop-color="#250f00"/><stop offset="0.89" stop-color="#0a0400"/><stop offset="1"/></radialGradient><radialGradient id="radial-gradient-35" cx="-10572.61" cy="-672.93" r="72.91" xlink:href="#radial-gradient-20"/><radialGradient id="radial-gradient-36" cx="-10382.07" cy="-661.82" r="72.91" xlink:href="#radial-gradient-20"/><radialGradient id="radial-gradient-37" cx="-10684.33" cy="-1061.13" r="60.5" gradientTransform="matrix(0.08, 0.04, -0.02, 0.21, 974.28, 1004.16)" xlink:href="#radial-gradient-20"/><radialGradient id="radial-gradient-38" cx="-10637.4" cy="-1164.62" r="102.61" gradientTransform="matrix(0.08, 0.04, -0.02, 0.21, 974.28, 1004.16)" xlink:href="#radial-gradient-18"/><radialGradient id="radial-gradient-39" cx="-10651.79" cy="-1449.6" r="102.58" gradientTransform="matrix(0.08, 0.04, -0.02, 0.21, 974.28, 1004.16)" xlink:href="#radial-gradient-18"/><radialGradient id="radial-gradient-40" cx="-10401.35" cy="-810.62" r="60.53" gradientTransform="matrix(0.08, 0.04, -0.02, 0.21, 974.28, 1004.16)" xlink:href="#radial-gradient-20"/><radialGradient id="radial-gradient-41" cx="-10672.06" cy="-751.78" r="137.26" gradientTransform="matrix(0.07, 0.05, -0.05, 0.34, 927.1, 1107.07)" gradientUnits="userSpaceOnUse"><stop offset="0" stop-color="#ba8f00"/><stop offset="0.19" stop-color="#8c6c00"/><stop offset="0.47" stop-color="#503e00"/><stop offset="0.71" stop-color="#251c00"/><stop offset="0.89" stop-color="#0a0800"/><stop offset="1"/></radialGradient><radialGradient id="radial-gradient-42" cx="-10883.06" cy="-632.55" r="167.69" xlink:href="#radial-gradient-41"/><radialGradient id="radial-gradient-43" cx="-11233.01" cy="-638.07" r="151.99" xlink:href="#radial-gradient-41"/><radialGradient id="radial-gradient-44" cx="-11092.32" cy="-632.21" r="151.98" xlink:href="#radial-gradient-41"/><radialGradient id="radial-gradient-45" cx="-11515.49" cy="-853.36" r="115.71" gradientTransform="matrix(0.07, 0.05, -0.05, 0.34, 927.1, 1107.07)" xlink:href="#radial-gradient-34"/><radialGradient id="radial-gradient-46" cx="34.25" cy="1745.89" r="74.51" gradientTransform="matrix(0.05, -0.61, 0.06, 0, 24, 308.38)" gradientUnits="userSpaceOnUse"><stop offset="0" stop-color="#ffefce"/><stop offset="0.02" stop-color="#efe0c1"/><stop offset="0.13" stop-color="#a89d87"/><stop offset="0.24" stop-color="#6c6557"/><stop offset="0.33" stop-color="#3d3932"/><stop offset="0.41" stop-color="#1c1a16"/><stop offset="0.48" stop-color="#070706"/><stop offset="0.53"/></radialGradient><radialGradient id="radial-gradient-47" cx="94.58" cy="1732.63" r="52.79" xlink:href="#radial-gradient-46"/><radialGradient id="radial-gradient-48" cx="423.27" cy="1693.53" r="52.79" gradientTransform="matrix(0.03, -0.31, 0.06, 0, 19.19, 360.78)" xlink:href="#radial-gradient-46"/><radialGradient id="radial-gradient-49" cx="394.35" cy="1722.3" r="52.8" gradientTransform="matrix(0.03, -0.31, 0.06, 0, 19.19, 360.78)" xlink:href="#radial-gradient-46"/><radialGradient id="radial-gradient-50" cx="491.81" cy="1701.89" r="35.4" gradientTransform="matrix(0.03, -0.31, 0.06, 0, 19.19, 360.78)" xlink:href="#radial-gradient-46"/><radialGradient id="radial-gradient-51" cx="219.97" cy="2037.73" r="37.27" gradientTransform="matrix(0.01, -0.62, 0.06, 0, 22.53, 323.87)" xlink:href="#radial-gradient-46"/><radialGradient id="radial-gradient-52" cx="24.65" cy="2254.31" r="52.83" gradientTransform="matrix(0.12, -0.6, 0.06, 0.01, 28.14, 281.37)" xlink:href="#radial-gradient-46"/><radialGradient id="radial-gradient-53" cx="293.21" cy="1418.27" r="52.82" gradientTransform="matrix(0.01, -0.31, 0.06, 0, 21.35, 376.65)" xlink:href="#radial-gradient-46"/><radialGradient id="radial-gradient-54" cx="415.14" cy="2239.1" r="52.78" gradientTransform="matrix(0.03, -0.31, 0.06, 0, 18.82, 360.38)" xlink:href="#radial-gradient-46"/><radialGradient id="radial-gradient-55" cx="127.52" cy="3884.79" r="52.8" gradientTransform="matrix(0.11, -0.53, 0.21, 0.04, -710.06, 220.48)" xlink:href="#radial-gradient-46"/><radialGradient id="radial-gradient-56" cx="234.19" cy="3739.44" r="34.07" gradientTransform="matrix(0.11, -0.53, 0.21, 0.04, -710.06, 220.48)" xlink:href="#radial-gradient-46"/><radialGradient id="radial-gradient-57" cx="240.98" cy="3888.89" r="34.07" gradientTransform="matrix(0.11, -0.53, 0.21, 0.04, -710.06, 220.48)" xlink:href="#radial-gradient-46"/><radialGradient id="radial-gradient-58" cx="352.31" cy="3799.4" r="34.07" gradientTransform="matrix(0.11, -0.53, 0.21, 0.04, -710.06, 220.48)" xlink:href="#radial-gradient-46"/><radialGradient id="radial-gradient-59" cx="143.58" cy="3673.06" r="34.07" gradientTransform="matrix(0.03, -0.54, 0.22, 0.01, -717.46, 348.38)" xlink:href="#radial-gradient-46"/><radialGradient id="radial-gradient-60" cx="301.44" cy="3840.32" r="34.06" gradientTransform="matrix(0.11, -0.53, 0.21, 0.04, -710.06, 220.48)" xlink:href="#radial-gradient-46"/><radialGradient id="radial-gradient-61" cx="361.76" cy="1426.59" r="35.41" gradientTransform="matrix(0.01, -0.31, 0.06, 0, 21.35, 376.65)" xlink:href="#radial-gradient-46"/></defs><g class="cls-1"><g id="图层_2" data-name="图层 2"><g id="Layer_1" data-name="Layer 1"><path id="_1" data-name="1" class="cls-2" d="M163,317.91a66.95,66.95,0,1,1-92.83,18.6A66.94,66.94,0,0,1,163,317.91Z"/><g id="_2" data-name="2"><path class="cls-3" d="M166.93,390.88a58.32,58.32,0,1,1-82.22,6.36A58.31,58.31,0,0,1,166.93,390.88Z"/><path class="cls-4" d="M150.12,443.36a32.32,32.32,0,1,1-45.56,3.52A32.31,32.31,0,0,1,150.12,443.36Z"/><path class="cls-5" d="M146.41,310.72a49.15,49.15,0,1,1-68.16,13.66A49.15,49.15,0,0,1,146.41,310.72Z"/><path class="cls-6" d="M53.05,327.59c2.67-4,37.8,14.72,78.47,41.81s71.47,52.3,68.81,56.3-37.8-14.72-78.46-41.82S50.39,331.59,53.05,327.59Z"/><path class="cls-7" d="M155.25,292.9c4.55,1.55-4.55,40.3-20.32,86.55s-32.25,82.49-36.8,80.94,4.55-40.31,20.32-86.56S150.7,291.34,155.25,292.9Z"/><path class="cls-8" d="M54.7,484.34c-2.37-1.57,27.87-51.12,67.54-110.66s73.74-106.54,76.11-105-27.87,51.12-67.54,110.67S57.07,485.92,54.7,484.34Z"/><path class="cls-9" d="M0,404.37c-.61-2.78,55.54-17.49,125.42-32.87s127-25.59,127.62-22.81-55.54,17.49-125.41,32.87S.62,407.15,0,404.37Z"/><path class="cls-10" d="M140.16,480.55c-8,1-20.46-44.74-27.83-102.23s-6.88-104.9,1.12-105.93,20.45,44.74,27.83,102.22S148.15,479.52,140.16,480.55Z"/><path class="cls-11" d="M242.26,399.44c-1.77,8.87-54.89,5.78-118.65-6.91s-114-30.17-112.26-39,54.89-5.77,118.65,6.92S244,390.58,242.26,399.44Z"/><path class="cls-12" d="M163.23,431.42c-4.22,2.79-23.95-19.54-44.07-49.89s-33-57.21-28.78-60,24,19.54,44.07,49.88S167.45,428.62,163.23,431.42Z"/><path class="cls-13" d="M213.87,348.34c2.15,6.69-35.07,24.71-83.16,40.24s-88.81,22.7-91,16,35.07-24.7,83.15-40.23S211.71,341.65,213.87,348.34Z"/></g><g id="_3" data-name="3"><path class="cls-14" d="M177.55,333.76c-15.88,31.89-43.87,42.41-63.19,22.83-19-19.29-21.71-60.92-5.71-92.69s44.14-42.16,63.17-22.87S193.41,301.84,177.55,333.76Z"/><path class="cls-15" d="M72.92,189.12c14.19-79.5,48.23-121.23,76-93.2s38.82,115.18,24.62,194.7-48.24,121.21-76,93.19S58.71,268.62,72.92,189.12Z"/><path class="cls-16" d="M78.09,100.52c13.69-76.66,45-118.37,70-93.18s34.12,107.71,20.43,184.35-45,118.37-70,93.18S64.4,177.16,78.09,100.52Z"/><path class="cls-17" d="M131.16,270.36c9.91-55.49,32.6-85.68,50.67-67.45s24.69,78,14.78,133.43S164,422,146,403.79,121.26,325.82,131.16,270.36Z"/><path class="cls-18" d="M80.06,299.6C86,266.18,99.7,248,110.58,259s14.88,47,8.91,80.37S99.86,391,89,380,74.1,333,80.06,299.6Z"/><path class="cls-19" d="M125,349.11c-2.13,18.18-8.88,30.36-15.31,27.08s-9.8-20.63-7.63-38.79,9-30.34,15.3-27.11S127.09,330.91,125,349.11Z"/><path class="cls-20" d="M144.67,204.5c-1.18,10.08-4.92,16.83-8.48,15S130.76,208.08,132,198s5-16.8,8.47-15S145.84,194.43,144.67,204.5Z"/><path class="cls-21" d="M154.94,278c-1.17,10.07-4.92,16.82-8.47,15s-5.43-11.43-4.23-21.5,5-16.79,8.47-15S156.11,268,154.94,278Z"/><path class="cls-22" d="M101.83,314c-1.18,10.08-4.92,16.82-8.48,15s-5.43-11.42-4.22-21.49,5-16.8,8.47-15S103,303.88,101.83,314Z"/><path class="cls-23" d="M130.3,160.84c-1.18,10.09-4.92,16.82-8.48,15s-5.43-11.42-4.22-21.49,5-16.8,8.47-15S131.47,150.76,130.3,160.84Z"/><path class="cls-24" d="M129.9,81.13c-1.18,10.09-4.92,16.83-8.48,15S116,84.72,117.19,74.65s5-16.8,8.47-15S131.06,71.05,129.9,81.13Z"/><path class="cls-25" d="M175.4,249.3c-2,17-8.3,28.37-14.3,25.31S152,255.35,154,238.36,162.35,210,168.27,213,177.37,232.3,175.4,249.3Z"/><path class="cls-26" d="M91.62,261.86c-1.63,14-6.84,23.4-11.79,20.87S72.28,266.85,74,252.84s6.9-23.37,11.78-20.89S93.25,247.84,91.62,261.86Z"/><path class="cls-27" d="M134.79,289.46c-1.56,10-4.47,16.92-6.59,15.42s-2.53-10.77-.95-20.76,4.5-16.91,6.58-15.44S136.34,279.47,134.79,289.46Z"/><path class="cls-28" d="M124.64,250.18c-2.21,21.5-5.64,37-7.72,34.52s-1.94-21.79.29-43.27,5.66-37,7.71-34.55S126.85,228.69,124.64,250.18Z"/><path class="cls-29" d="M161.78,207.26c-1.49,14.47-3.8,24.88-5.2,23.23s-1.3-14.66.2-29.12,3.81-24.86,5.19-23.25S163.26,192.8,161.78,207.26Z"/><path class="cls-30" d="M166.65,222c-3.06,26.3-12.82,43.91-22.13,39.18-9.15-4.68-14.16-29.84-11-56.11s13-43.87,22.12-39.19S169.71,195.64,166.65,222Z"/><path class="cls-31" d="M148.42,272.92C145.7,293,139,306.62,133.33,303.3s-8-22.2-5.24-42.21,9.47-33.66,15.08-30.4S151.14,252.87,148.42,272.92Z"/><path class="cls-32" d="M158.37,113.14c-3.5,26.21-12.32,44-20,39.65s-10.86-29.11-7.31-55.28,12.43-44,20-39.67S161.87,86.91,158.37,113.14Z"/><path class="cls-33" d="M192.24,329.79c-3.07,26.3-12.83,43.91-22.13,39.17s-14.17-29.83-11-56.1,13-43.87,22.12-39.2S195.3,303.47,192.24,329.79Z"/><path class="cls-34" d="M191.22,345.18c-5.2,44.61-21.75,74.47-37.53,66.43-15.52-7.93-24-50.58-18.71-95.12S157,242.1,172.5,250,196.41,300.56,191.22,345.18Z"/><path class="cls-35" d="M163.13,315.12c-3.06,26.32-12.83,43.93-22.13,39.19s-14.17-29.84-11-56.11,13-43.86,22.12-39.19S166.19,288.82,163.13,315.12Z"/><path class="cls-36" d="M121.27,321.5c-1.63,14-6.82,23.35-11.76,20.82s-7.53-15.84-5.87-29.81,6.89-23.31,11.76-20.83S122.9,307.53,121.27,321.5Z"/><path class="cls-37" d="M143.87,337.12c-1.63,14-6.82,23.34-11.76,20.81s-7.53-15.85-5.86-29.8,6.88-23.3,11.75-20.82S145.5,323.14,143.87,337.12Z"/><path class="cls-38" d="M125.63,330.09c-.84,7.13-3.7,11.8-6.49,10.36s-4.33-8.33-3.47-15.44,3.73-11.81,6.47-10.4S126.45,322.94,125.63,330.09Z"/><path class="cls-39" d="M135.52,311.74c-1.41,12.09-6.26,20-11,17.6s-7.33-14.15-5.89-26.22,6.33-20,11-17.63S136.93,299.62,135.52,311.74Z"/><path class="cls-40" d="M141.41,250.3c-1.41,12.1-6.26,20-11,17.59s-7.35-14.13-5.9-26.21,6.33-20,11-17.6S142.82,238.19,141.41,250.3Z"/><path class="cls-41" d="M142.72,395.48c-.83,7.12-3.7,11.8-6.49,10.37s-4.32-8.33-3.47-15.47,3.73-11.79,6.48-10.37S143.55,388.33,142.72,395.48Z"/><path class="cls-42" d="M177,304.49c-4,26.11-11.75,44.16-17.52,40.2s-7.09-28.28-3.05-54.35,11.84-44.1,17.52-40.2S181,278.39,177,304.49Z"/><path class="cls-43" d="M157.22,336.21c-4.88,31.9-14.36,54-21.4,49.11s-8.66-34.55-3.72-66.4,14.45-53.88,21.39-49.11S162.1,304.32,157.22,336.21Z"/><path class="cls-44" d="M130.11,315.44c-4.43,28.91-13,48.9-19.41,44.51s-7.84-31.31-3.37-60.18,13.1-48.84,19.39-44.52S134.52,286.54,130.11,315.44Z"/><path class="cls-45" d="M140.34,324.72c-4.43,28.91-13,48.9-19.4,44.51s-7.85-31.31-3.37-60.18,13.1-48.84,19.39-44.52S144.76,295.81,140.34,324.72Z"/><path class="cls-46" d="M117.56,224.87c-3.37,22-9.91,37.23-14.77,33.89s-6-23.84-2.57-45.81,10-37.18,14.76-33.89S120.92,202.87,117.56,224.87Z"/><path class="cls-47" d="M128.12,250.27c2.32.2,2.41,20.84.21,46.1s-5.87,45.56-8.19,45.36-2.41-20.84-.2-46.1S125.8,250.07,128.12,250.27Z"/><path class="cls-48" d="M129.44,226.52c1.64.14,1.71,14.77.15,32.66s-4.16,32.28-5.8,32.14-1.71-14.77-.15-32.66S127.8,226.37,129.44,226.52Z"/><path class="cls-49" d="M127.38,221.94c1.64.15,2.34,7.58,1.55,16.59s-2.75,16.22-4.4,16.07S122.2,247,123,238,125.74,221.8,127.38,221.94Z"/><path class="cls-50" d="M128.22,231c1.65.14,2.34,7.56,1.55,16.58s-2.76,16.22-4.4,16.07-2.33-7.57-1.54-16.58S126.58,230.88,128.22,231Z"/><path class="cls-51" d="M129.23,206.17c1.1.1,1.57,5.08,1,11.12s-1.85,10.87-3,10.78-1.57-5.08-1-11.13S128.13,206.07,129.23,206.17Z"/><path class="cls-52" d="M141.12,168.17c1.16,0,1.87,10.32,1.58,23s-1.46,22.93-2.62,22.9-1.87-10.32-1.59-23S140,168.14,141.12,168.17Z"/><path class="cls-53" d="M162.26,259.49c1.61.32.08,14.86-3.43,32.48s-7.66,31.64-9.27,31.31-.08-14.86,3.42-32.48S160.64,259.17,162.26,259.49Z"/><path class="cls-54" d="M103.82,271.15c1.64,0,2.81,7.4,2.61,16.45s-1.7,16.36-3.35,16.32-2.82-7.4-2.62-16.45S102.17,271.11,103.82,271.15Z"/><path class="cls-55" d="M157.51,226.75c1.63.15,2.33,7.58,1.54,16.59s-2.75,16.22-4.4,16.07-2.33-7.57-1.54-16.59S155.86,226.61,157.51,226.75Z"/><path class="cls-56" d="M142.77,290.35c6.26,1.25,8.82,14.87,5.72,30.43S137.81,348,131.55,346.7s-8.81-14.87-5.72-30.43S136.51,289.11,142.77,290.35Z"/><path class="cls-57" d="M120.92,237.22c4,.81,5.69,9.6,3.69,19.64s-6.89,17.53-10.93,16.72S108,264,110,254,116.88,236.42,120.92,237.22Z"/><path class="cls-58" d="M153.71,240c4,.8,5.69,9.59,3.7,19.63s-6.9,17.53-10.93,16.72-5.69-9.59-3.69-19.63S149.68,239.19,153.71,240Z"/><path class="cls-59" d="M146.33,176.77c4,.8,5.69,9.59,3.7,19.63s-6.89,17.53-10.93,16.72-5.69-9.59-3.69-19.63S142.29,176,146.33,176.77Z"/><path class="cls-60" d="M90.79,303.41c4.11.27,6.91,8.76,6.25,19s-4.52,18.28-8.63,18-6.9-8.76-6.25-19S86.68,303.15,90.79,303.41Z"/><path class="cls-61" d="M149.71,205.66c4,.81,5.69,9.6,3.69,19.64s-6.89,17.52-10.92,16.72-5.7-9.59-3.7-19.64S145.67,204.86,149.71,205.66Z"/><path class="cls-62" d="M104.64,255.29c1.11,0,1.89,5,1.75,11s-1.14,11-2.24,10.94-1.89-5-1.75-11S103.54,255.26,104.64,255.29Z"/></g></g></g></g></svg>