<svg xmlns="http://www.w3.org/2000/svg" xmlns:xlink="http://www.w3.org/1999/xlink" viewBox="0 0 253.05 268.92"><defs><style>.cls-1{isolation:isolate;}.cls-10,.cls-11,.cls-12,.cls-13,.cls-14,.cls-2,.cls-3,.cls-4,.cls-5,.cls-6,.cls-7,.cls-8,.cls-9{mix-blend-mode:screen;}.cls-2{fill:url(#radial-gradient);}.cls-3,.cls-4,.cls-5{opacity:0.2;}.cls-3{fill:url(#radial-gradient-2);}.cls-4{fill:url(#radial-gradient-3);}.cls-5{fill:url(#radial-gradient-4);}.cls-6{fill:url(#radial-gradient-5);}.cls-7{fill:url(#radial-gradient-6);}.cls-8{fill:url(#radial-gradient-7);}.cls-10,.cls-9{opacity:0.3;}.cls-9{fill:url(#radial-gradient-8);}.cls-10{fill:url(#radial-gradient-9);}.cls-11,.cls-12,.cls-13{opacity:0.7;}.cls-11{fill:url(#radial-gradient-10);}.cls-12{fill:url(#radial-gradient-11);}.cls-13{fill:url(#radial-gradient-12);}.cls-14{fill:url(#radial-gradient-13);}</style><radialGradient id="radial-gradient" cx="94.34" cy="-154.89" r="150.65" gradientTransform="translate(159.92 215.39) rotate(-56.33) scale(0.44)" gradientUnits="userSpaceOnUse"><stop offset="0" stop-color="#fff"/><stop offset="0.01" stop-color="#fffef8"/><stop offset="0.1" stop-color="#fcf6ca"/><stop offset="0.17" stop-color="#fbf2ad"/><stop offset="0.21" stop-color="#faf0a2"/><stop offset="0.22" stop-color="#f5e498"/><stop offset="0.27" stop-color="#e5bd76"/><stop offset="0.31" stop-color="#d79d59"/><stop offset="0.36" stop-color="#cc8444"/><stop offset="0.41" stop-color="#c57234"/><stop offset="0.47" stop-color="#c0672b"/><stop offset="0.53" stop-color="#bf6428"/><stop offset="0.58" stop-color="#a05421"/><stop offset="0.71" stop-color="#4a2710"/><stop offset="0.81" stop-color="#150b04"/><stop offset="0.85"/></radialGradient><radialGradient id="radial-gradient-2" cx="-29.64" cy="-18.11" r="131.22" gradientTransform="matrix(0.29, -0.34, 0.34, 0.29, 143.68, 199.11)" gradientUnits="userSpaceOnUse"><stop offset="0.34" stop-color="#40210d"/><stop offset="0.37" stop-color="#46240e"/><stop offset="0.41" stop-color="#572d12"/><stop offset="0.45" stop-color="#723c18"/><stop offset="0.49" stop-color="#985020"/><stop offset="0.53" stop-color="#bf6428"/><stop offset="0.57" stop-color="#9c5221"/><stop offset="0.64" stop-color="#653515"/><stop offset="0.71" stop-color="#391e0c"/><stop offset="0.77" stop-color="#1a0e05"/><stop offset="0.82" stop-color="#070401"/><stop offset="0.85"/></radialGradient><radialGradient id="radial-gradient-3" cx="-85.43" cy="29.96" r="72.71" xlink:href="#radial-gradient-2"/><radialGradient id="radial-gradient-4" cx="127.14" cy="-194.93" r="110.61" gradientTransform="translate(159.92 215.39) rotate(-56.33) scale(0.44)" xlink:href="#radial-gradient-2"/><radialGradient id="radial-gradient-5" cx="1406.02" cy="-6398.4" r="102.15" gradientTransform="matrix(-0.72, -0.48, 0.05, -0.07, 1442.39, 366.81)" gradientUnits="userSpaceOnUse"><stop offset="0" stop-color="#faf0a2"/><stop offset="0.01" stop-color="#f6e599"/><stop offset="0.1" stop-color="#deae69"/><stop offset="0.17" stop-color="#cd8645"/><stop offset="0.22" stop-color="#c36d30"/><stop offset="0.25" stop-color="#bf6428"/><stop offset="0.26" stop-color="#be6328"/><stop offset="0.42" stop-color="#733c18"/><stop offset="0.47" stop-color="#623314"/><stop offset="0.65" stop-color="#2d1809"/><stop offset="0.78" stop-color="#0c0603"/><stop offset="0.85"/></radialGradient><radialGradient id="radial-gradient-6" cx="730.71" cy="-2509.01" r="102.19" gradientTransform="matrix(0.28, -0.82, 0.08, 0.03, 124.58, 813.29)" xlink:href="#radial-gradient-5"/><radialGradient id="radial-gradient-7" cx="1746.63" cy="1550.39" r="102.17" gradientTransform="matrix(-0.7, 1.06, -0.04, -0.03, 1419.54, -1654.76)" xlink:href="#radial-gradient-5"/><radialGradient id="radial-gradient-8" cx="1669.01" cy="-6398.02" r="102.16" gradientTransform="matrix(-1.24, 0.27, -0.01, -0.05, 2124.36, -624.69)" xlink:href="#radial-gradient-5"/><radialGradient id="radial-gradient-9" cx="1601.43" cy="2346.16" r="82.74" gradientTransform="matrix(0.16, 1.26, -0.18, 0.02, 279, -1921.69)" xlink:href="#radial-gradient-5"/><radialGradient id="radial-gradient-10" cx="1096.35" cy="2680.38" r="92.82" gradientTransform="matrix(1.24, 0.25, -0.03, 0.17, -1144.38, -590.02)" xlink:href="#radial-gradient-5"/><radialGradient id="radial-gradient-11" cx="1426.55" cy="3014.76" r="51.99" gradientTransform="matrix(0.7, 1.06, -0.15, 0.1, -429.56, -1656.45)" xlink:href="#radial-gradient-5"/><radialGradient id="radial-gradient-12" cx="941.51" cy="1570.49" r="72.15" gradientTransform="matrix(1.21, -0.39, 0.05, 0.17, -1094.46, 248.6)" xlink:href="#radial-gradient-5"/><radialGradient id="radial-gradient-13" cx="-10847.54" cy="-960.57" r="137.23" gradientTransform="matrix(0.25, 0.25, -0.21, 0.42, 2666.98, 3235.33)" gradientUnits="userSpaceOnUse"><stop offset="0.15" stop-color="#ffdc85"/><stop offset="0.21" stop-color="#d9bc71"/><stop offset="0.35" stop-color="#8d7a4a"/><stop offset="0.48" stop-color="#51452a"/><stop offset="0.59" stop-color="#252013"/><stop offset="0.67" stop-color="#0a0905"/><stop offset="0.72"/></radialGradient></defs><g class="cls-1"><g id="图层_2" data-name="图层 2"><g id="Layer_1" data-name="Layer 1"><path id="_1" data-name="1" class="cls-2" d="M163,86.62a66.95,66.95,0,1,1-92.83,18.59A66.94,66.94,0,0,1,163,86.62Z"/><g id="_2" data-name="2"><path class="cls-3" d="M166.93,159.59A58.32,58.32,0,1,1,84.71,166,58.3,58.3,0,0,1,166.93,159.59Z"/><path class="cls-4" d="M150.12,212.07a32.31,32.31,0,1,1-45.56,3.52A32.3,32.3,0,0,1,150.12,212.07Z"/><path class="cls-5" d="M146.41,79.43A49.15,49.15,0,1,1,78.25,93.08,49.15,49.15,0,0,1,146.41,79.43Z"/><path class="cls-6" d="M53.05,96.29c2.67-4,37.8,14.72,78.47,41.82s71.47,52.29,68.81,56.3-37.8-14.73-78.46-41.82S50.39,100.29,53.05,96.29Z"/><path class="cls-7" d="M155.25,61.6c4.55,1.55-4.55,40.31-20.32,86.55s-32.25,82.49-36.8,80.94,4.55-40.3,20.32-86.55S150.7,60.05,155.25,61.6Z"/><path class="cls-8" d="M54.7,253.05c-2.37-1.58,27.87-51.12,67.54-110.67S196,35.85,198.35,37.43s-27.87,51.12-67.54,110.66S57.07,254.63,54.7,253.05Z"/><path class="cls-9" d="M0,173.08c-.61-2.78,55.54-17.49,125.42-32.87s127-25.59,127.62-22.81-55.54,17.49-125.41,32.87S.62,175.86,0,173.08Z"/><path class="cls-10" d="M140.16,249.25c-8,1-20.46-44.73-27.83-102.22s-6.88-104.9,1.12-105.93,20.45,44.74,27.83,102.22S148.15,248.23,140.16,249.25Z"/><path class="cls-11" d="M242.26,168.15c-1.77,8.87-54.89,5.78-118.65-6.92s-114-30.16-112.26-39,54.89-5.77,118.65,6.92S244,159.28,242.26,168.15Z"/><path class="cls-12" d="M163.23,200.12c-4.22,2.8-23.95-19.53-44.07-49.88s-33-57.21-28.78-60,24,19.53,44.07,49.88S167.45,197.33,163.23,200.12Z"/><path class="cls-13" d="M213.87,117.05c2.15,6.69-35.07,24.7-83.16,40.24s-88.81,22.7-91,16,35.07-24.7,83.15-40.23S211.71,110.36,213.87,117.05Z"/></g><g id="_3" data-name="3"><path class="cls-14" d="M177.55,102.46c-15.88,31.9-43.87,42.42-63.19,22.84-19-19.29-21.71-60.93-5.71-92.69S152.79-9.55,171.82,9.73C191,29.17,193.41,70.55,177.55,102.46Z"/></g></g></g></g></svg>