<svg xmlns="http://www.w3.org/2000/svg" xmlns:xlink="http://www.w3.org/1999/xlink" viewBox="0 0 253.05 500.22"><defs><style>.cls-1{isolation:isolate;}.cls-10,.cls-11,.cls-12,.cls-13,.cls-14,.cls-15,.cls-16,.cls-17,.cls-18,.cls-19,.cls-2,.cls-3,.cls-4,.cls-5,.cls-6,.cls-7,.cls-8,.cls-9{mix-blend-mode:screen;}.cls-2{fill:url(#radial-gradient);}.cls-3,.cls-4,.cls-5{opacity:0.2;}.cls-3{fill:url(#radial-gradient-2);}.cls-4{fill:url(#radial-gradient-3);}.cls-5{fill:url(#radial-gradient-4);}.cls-6{fill:url(#radial-gradient-5);}.cls-7{fill:url(#radial-gradient-6);}.cls-8{fill:url(#radial-gradient-7);}.cls-10,.cls-16,.cls-17,.cls-18,.cls-9{opacity:0.3;}.cls-9{fill:url(#radial-gradient-8);}.cls-10{fill:url(#radial-gradient-9);}.cls-11,.cls-12,.cls-13{opacity:0.7;}.cls-11{fill:url(#radial-gradient-10);}.cls-12{fill:url(#radial-gradient-11);}.cls-13{fill:url(#radial-gradient-12);}.cls-14{fill:url(#radial-gradient-13);}.cls-15{opacity:0.5;fill:url(#radial-gradient-14);}.cls-16{fill:url(#radial-gradient-15);}.cls-17{fill:url(#radial-gradient-16);}.cls-18{fill:url(#radial-gradient-17);}.cls-19{opacity:0.4;fill:url(#radial-gradient-18);}</style><radialGradient id="radial-gradient" cx="94.34" cy="76.41" r="150.65" gradientTransform="translate(74.38 389.69) rotate(-56.33) scale(0.44)" gradientUnits="userSpaceOnUse"><stop offset="0" stop-color="#fff"/><stop offset="0.01" stop-color="#fffef8"/><stop offset="0.1" stop-color="#fcf6ca"/><stop offset="0.17" stop-color="#fbf2ad"/><stop offset="0.21" stop-color="#faf0a2"/><stop offset="0.22" stop-color="#f5e498"/><stop offset="0.27" stop-color="#e5bd76"/><stop offset="0.31" stop-color="#d79d59"/><stop offset="0.36" stop-color="#cc8444"/><stop offset="0.41" stop-color="#c57234"/><stop offset="0.47" stop-color="#c0672b"/><stop offset="0.53" stop-color="#bf6428"/><stop offset="0.58" stop-color="#a05421"/><stop offset="0.71" stop-color="#4a2710"/><stop offset="0.81" stop-color="#150b04"/><stop offset="0.85"/></radialGradient><radialGradient id="radial-gradient-2" cx="-29.64" cy="213.19" r="131.22" gradientTransform="matrix(0.29, -0.34, 0.34, 0.29, 65.6, 363.55)" gradientUnits="userSpaceOnUse"><stop offset="0.34" stop-color="#40210d"/><stop offset="0.37" stop-color="#46240e"/><stop offset="0.41" stop-color="#572d12"/><stop offset="0.45" stop-color="#723c18"/><stop offset="0.49" stop-color="#985020"/><stop offset="0.53" stop-color="#bf6428"/><stop offset="0.57" stop-color="#9c5221"/><stop offset="0.64" stop-color="#653515"/><stop offset="0.71" stop-color="#391e0c"/><stop offset="0.77" stop-color="#1a0e05"/><stop offset="0.82" stop-color="#070401"/><stop offset="0.85"/></radialGradient><radialGradient id="radial-gradient-3" cx="-85.43" cy="261.25" r="72.71" xlink:href="#radial-gradient-2"/><radialGradient id="radial-gradient-4" cx="127.14" cy="36.37" r="110.61" gradientTransform="translate(74.38 389.69) rotate(-56.33) scale(0.44)" xlink:href="#radial-gradient-2"/><radialGradient id="radial-gradient-5" cx="1406.02" cy="-6167.11" r="102.15" gradientTransform="matrix(-0.72, -0.48, 0.05, -0.07, 1431.46, 614.5)" gradientUnits="userSpaceOnUse"><stop offset="0" stop-color="#faf0a2"/><stop offset="0.01" stop-color="#f6e599"/><stop offset="0.1" stop-color="#deae69"/><stop offset="0.17" stop-color="#cd8645"/><stop offset="0.22" stop-color="#c36d30"/><stop offset="0.25" stop-color="#bf6428"/><stop offset="0.26" stop-color="#be6328"/><stop offset="0.42" stop-color="#733c18"/><stop offset="0.47" stop-color="#623314"/><stop offset="0.65" stop-color="#2d1809"/><stop offset="0.78" stop-color="#0c0603"/><stop offset="0.85"/></radialGradient><radialGradient id="radial-gradient-6" cx="730.71" cy="-2277.72" r="102.19" gradientTransform="matrix(0.28, -0.82, 0.08, 0.03, 105.94, 1038.22)" xlink:href="#radial-gradient-5"/><radialGradient id="radial-gradient-7" cx="1746.63" cy="1781.68" r="102.17" gradientTransform="matrix(-0.7, 1.06, -0.04, -0.03, 1429.24, -1417.01)" xlink:href="#radial-gradient-5"/><radialGradient id="radial-gradient-8" cx="1669.01" cy="-6166.72" r="102.16" gradientTransform="matrix(-1.24, 0.27, -0.01, -0.05, 2126.86, -382.01)" xlink:href="#radial-gradient-5"/><radialGradient id="radial-gradient-9" cx="1601.43" cy="2577.45" r="82.74" gradientTransform="matrix(0.16, 1.26, -0.18, 0.02, 319.48, -1695.58)" xlink:href="#radial-gradient-5"/><radialGradient id="radial-gradient-10" cx="1096.35" cy="2911.67" r="92.82" gradientTransform="matrix(1.24, 0.25, -0.03, 0.17, -1136.42, -398.75)" xlink:href="#radial-gradient-5"/><radialGradient id="radial-gradient-11" cx="1426.55" cy="3246.05" r="51.99" gradientTransform="matrix(0.7, 1.06, -0.15, 0.1, -395.56, -1447.69)" xlink:href="#radial-gradient-5"/><radialGradient id="radial-gradient-12" cx="941.51" cy="1801.78" r="72.15" gradientTransform="matrix(1.21, -0.39, 0.05, 0.17, -1107.01, 441.07)" xlink:href="#radial-gradient-5"/><radialGradient id="radial-gradient-13" cx="-10847.54" cy="-729.28" r="137.23" gradientTransform="matrix(0.25, 0.25, -0.21, 0.42, 2715.36, 3369.3)" gradientUnits="userSpaceOnUse"><stop offset="0.15" stop-color="#ffdc85"/><stop offset="0.21" stop-color="#d9bc71"/><stop offset="0.35" stop-color="#8d7a4a"/><stop offset="0.48" stop-color="#51452a"/><stop offset="0.59" stop-color="#252013"/><stop offset="0.67" stop-color="#0a0905"/><stop offset="0.72"/></radialGradient><radialGradient id="radial-gradient-14" cx="795.65" cy="361.4" r="210.47" gradientTransform="matrix(-0.24, -0.24, 0.12, -0.68, 269.36, 678.88)" gradientUnits="userSpaceOnUse"><stop offset="0" stop-color="#ffdc85"/><stop offset="0.09" stop-color="#edcd7c"/><stop offset="0.28" stop-color="#bea463"/><stop offset="0.54" stop-color="#73633c"/><stop offset="0.86" stop-color="#0c0b06"/><stop offset="0.9"/></radialGradient><radialGradient id="radial-gradient-15" cx="854.95" cy="452.67" r="189.07" gradientTransform="matrix(-0.24, -0.24, 0.13, -0.73, 268.4, 684.49)" gradientUnits="userSpaceOnUse"><stop offset="0" stop-color="#ff9000"/><stop offset="0.09" stop-color="#ed8600"/><stop offset="0.28" stop-color="#be6b00"/><stop offset="0.54" stop-color="#734100"/><stop offset="0.86" stop-color="#0c0700"/><stop offset="0.9"/></radialGradient><radialGradient id="radial-gradient-16" cx="611.59" cy="318.38" r="136.84" xlink:href="#radial-gradient-15"/><radialGradient id="radial-gradient-17" cx="828.57" cy="225.12" r="82.43" xlink:href="#radial-gradient-15"/><radialGradient id="radial-gradient-18" cx="-10540.6" cy="-603" r="94.9" gradientTransform="matrix(0.12, 0.06, -0.04, 0.35, 1364.33, 1203.07)" gradientUnits="userSpaceOnUse"><stop offset="0" stop-color="#d45800"/><stop offset="0.27" stop-color="#8d3b00"/><stop offset="0.52" stop-color="#502100"/><stop offset="0.74" stop-color="#250f00"/><stop offset="0.9" stop-color="#0a0400"/><stop offset="1"/></radialGradient></defs><g class="cls-1"><g id="图层_2" data-name="图层 2"><g id="Layer_1" data-name="Layer 1"><path id="_1" data-name="1" class="cls-2" d="M163,317.91a66.95,66.95,0,1,1-92.83,18.6A66.94,66.94,0,0,1,163,317.91Z"/><g id="_2" data-name="2"><path class="cls-3" d="M166.93,390.88a58.32,58.32,0,1,1-82.22,6.36A58.31,58.31,0,0,1,166.93,390.88Z"/><path class="cls-4" d="M150.12,443.36a32.32,32.32,0,1,1-45.56,3.52A32.31,32.31,0,0,1,150.12,443.36Z"/><path class="cls-5" d="M146.41,310.72a49.15,49.15,0,1,1-68.16,13.66A49.15,49.15,0,0,1,146.41,310.72Z"/><path class="cls-6" d="M53.05,327.59c2.67-4,37.8,14.72,78.47,41.81s71.47,52.3,68.81,56.3-37.8-14.72-78.46-41.82S50.39,331.59,53.05,327.59Z"/><path class="cls-7" d="M155.25,292.9c4.55,1.55-4.55,40.3-20.32,86.55s-32.25,82.49-36.8,80.94,4.55-40.31,20.32-86.56S150.7,291.34,155.25,292.9Z"/><path class="cls-8" d="M54.7,484.34c-2.37-1.57,27.87-51.12,67.54-110.66s73.74-106.54,76.11-105-27.87,51.12-67.54,110.67S57.07,485.92,54.7,484.34Z"/><path class="cls-9" d="M0,404.37c-.61-2.78,55.54-17.49,125.42-32.87s127-25.59,127.62-22.81-55.54,17.49-125.41,32.87S.62,407.15,0,404.37Z"/><path class="cls-10" d="M140.16,480.55c-8,1-20.46-44.74-27.83-102.23s-6.88-104.9,1.12-105.93,20.45,44.74,27.83,102.22S148.15,479.52,140.16,480.55Z"/><path class="cls-11" d="M242.26,399.44c-1.77,8.87-54.89,5.78-118.65-6.91s-114-30.17-112.26-39,54.89-5.77,118.65,6.92S244,390.58,242.26,399.44Z"/><path class="cls-12" d="M163.23,431.42c-4.22,2.79-23.95-19.54-44.07-49.89s-33-57.21-28.78-60,24,19.54,44.07,49.88S167.45,428.62,163.23,431.42Z"/><path class="cls-13" d="M213.87,348.34c2.15,6.69-35.07,24.71-83.16,40.24s-88.81,22.7-91,16,35.07-24.7,83.15-40.23S211.71,341.65,213.87,348.34Z"/></g><g id="_3" data-name="3"><path class="cls-14" d="M177.55,333.76c-15.88,31.89-43.87,42.41-63.19,22.83-19-19.29-21.71-60.92-5.71-92.69s44.14-42.16,63.17-22.87S193.41,301.84,177.55,333.76Z"/><path class="cls-15" d="M72.92,189.12c14.19-79.5,48.23-121.23,76-93.2s38.82,115.18,24.62,194.7-48.24,121.21-76,93.19S58.71,268.62,72.92,189.12Z"/><path class="cls-16" d="M78.09,100.52c13.69-76.66,45-118.37,70-93.18s34.12,107.71,20.43,184.35-45,118.37-70,93.18S64.4,177.16,78.09,100.52Z"/><path class="cls-17" d="M131.16,270.36c9.91-55.49,32.6-85.68,50.67-67.45s24.69,78,14.78,133.43S164,422,146,403.79,121.26,325.82,131.16,270.36Z"/><path class="cls-18" d="M80.06,299.6C86,266.18,99.7,248,110.58,259s14.88,47,8.91,80.37S99.86,391,89,380,74.1,333,80.06,299.6Z"/><path class="cls-19" d="M125,349.11c-2.13,18.18-8.88,30.36-15.31,27.08s-9.8-20.63-7.63-38.79,9-30.34,15.3-27.11S127.09,330.91,125,349.11Z"/></g></g></g></g></svg>