<svg xmlns="http://www.w3.org/2000/svg" xmlns:xlink="http://www.w3.org/1999/xlink" viewBox="0 0 2208 1417.18"><defs><style>.cls-1{isolation:isolate;}.cls-2{fill:none;}.cls-10,.cls-11,.cls-12,.cls-13,.cls-3,.cls-4,.cls-5,.cls-6,.cls-7,.cls-8{mix-blend-mode:screen;}.cls-3{fill:url(#radial-gradient);}.cls-13,.cls-4,.cls-9{opacity:0.7;}.cls-4{fill:url(#radial-gradient-2);}.cls-5{fill:url(#radial-gradient-3);}.cls-6{fill:url(#radial-gradient-4);}.cls-7{fill:url(#radial-gradient-5);}.cls-8{fill:url(#radial-gradient-6);}.cls-10{fill:url(#radial-gradient-7);}.cls-11{fill:url(#radial-gradient-8);}.cls-12{opacity:0.5;fill:url(#radial-gradient-9);}.cls-13{fill:url(#radial-gradient-10);}</style><radialGradient id="radial-gradient" cx="1448.99" cy="3058.88" r="150.65" gradientTransform="translate(-902.11 53.51) rotate(-56.33) scale(0.44)" gradientUnits="userSpaceOnUse"><stop offset="0" stop-color="#fff"/><stop offset="0.01" stop-color="#fffef8"/><stop offset="0.1" stop-color="#fcf6ca"/><stop offset="0.17" stop-color="#fbf2ad"/><stop offset="0.21" stop-color="#faf0a2"/><stop offset="0.22" stop-color="#f5e498"/><stop offset="0.27" stop-color="#e5bd76"/><stop offset="0.31" stop-color="#d79d59"/><stop offset="0.36" stop-color="#cc8444"/><stop offset="0.41" stop-color="#c57234"/><stop offset="0.47" stop-color="#c0672b"/><stop offset="0.53" stop-color="#bf6428"/><stop offset="0.58" stop-color="#a05421"/><stop offset="0.71" stop-color="#4a2710"/><stop offset="0.81" stop-color="#150b04"/><stop offset="0.85"/></radialGradient><radialGradient id="radial-gradient-2" cx="-11062.37" cy="4584.66" r="210.47" gradientTransform="matrix(-0.34, -0.16, -0.11, -0.69, -1796.17, 1571.21)" gradientUnits="userSpaceOnUse"><stop offset="0" stop-color="#ffdc85"/><stop offset="0.09" stop-color="#edcd7c"/><stop offset="0.28" stop-color="#bea463"/><stop offset="0.54" stop-color="#73633c"/><stop offset="0.86" stop-color="#0c0b06"/><stop offset="0.9"/></radialGradient><radialGradient id="radial-gradient-3" cx="1065.58" cy="2024.5" r="78.9" xlink:href="#radial-gradient"/><radialGradient id="radial-gradient-4" cx="2670.5" cy="4687.45" r="115.11" xlink:href="#radial-gradient"/><radialGradient id="radial-gradient-5" cx="2466.3" cy="6022.59" r="179.65" xlink:href="#radial-gradient"/><radialGradient id="radial-gradient-6" cx="118.01" cy="3457.42" r="74.84" xlink:href="#radial-gradient"/><radialGradient id="radial-gradient-7" cx="-7624.82" cy="-2365.12" r="137.23" gradientTransform="matrix(0.25, 0.25, -0.21, 0.42, 1833.3, 3768.88)" gradientUnits="userSpaceOnUse"><stop offset="0.15" stop-color="#ffdc85"/><stop offset="0.21" stop-color="#d9bc71"/><stop offset="0.35" stop-color="#8d7a4a"/><stop offset="0.48" stop-color="#51452a"/><stop offset="0.59" stop-color="#252013"/><stop offset="0.67" stop-color="#0a0905"/><stop offset="0.72"/></radialGradient><radialGradient id="radial-gradient-8" cx="-8861.22" cy="-3190.83" r="137.23" gradientTransform="matrix(-0.22, 0.48, -0.38, 0.44, -3049, 5752.61)" xlink:href="#radial-gradient-7"/><radialGradient id="radial-gradient-9" cx="-6405.64" cy="2903.12" r="210.47" gradientTransform="matrix(-0.18, -0.22, 0.15, -0.67, -986.14, 750.64)" xlink:href="#radial-gradient-2"/><radialGradient id="radial-gradient-10" cx="-13380.61" cy="4727.07" r="210.47" gradientTransform="matrix(-0.22, -0.22, -0.04, -1.05, -864.38, 2442.91)" xlink:href="#radial-gradient-2"/></defs><g class="cls-1"><g id="图层_2" data-name="图层 2"><g id="Layer_1" data-name="Layer 1"><rect class="cls-2" x="397.34" y="-393.48" width="1413.32" height="2208" transform="translate(1814.52 -393.48) rotate(90)"/><path id="_1" data-name="1" class="cls-3" d="M623.33,215.55a66.95,66.95,0,1,1-92.83,18.59A66.94,66.94,0,0,1,623.33,215.55Z"/><path class="cls-4" d="M1392.76,115.73c-13.32-80.09,8.13-130.22,47.91-112s82.84,97.94,96.16,178-8.14,130.21-47.93,112S1406.08,195.81,1392.76,115.73Z"/><path id="_1-2" data-name="1" class="cls-5" d="M128.63,129A35.06,35.06,0,1,1,80,138.77,35.06,35.06,0,0,1,128.63,129Z"/><path id="_1-3" data-name="1" class="cls-6" d="M1517.86,178.17a51.15,51.15,0,1,1-70.93,14.21A51.15,51.15,0,0,1,1517.86,178.17Z"/><path id="_1-4" data-name="1" class="cls-7" d="M1977.25,558.78A79.84,79.84,0,1,1,1866.54,581,79.85,79.85,0,0,1,1977.25,558.78Z"/><path id="_1-5" data-name="1" class="cls-8" d="M424.12,834A33.25,33.25,0,1,1,378,843.28,33.24,33.24,0,0,1,424.12,834Z"/><g id="_3" data-name="3" class="cls-9"><path class="cls-10" d="M447.17,866.05C431.29,898,403.3,908.47,384,888.89c-19-19.29-21.71-60.92-5.71-92.69s44.14-42.16,63.17-22.87S463,834.14,447.17,866.05Z"/></g><g id="_3-2" data-name="3" class="cls-9"><path class="cls-11" d="M108,189c-29,33.27-39.18,31.51-22.12-5.17,16.79-36.13,54.06-92.65,83-125.67,29-33.27,38.95-31,22.16,5.11C174,99.66,137,155.69,108,189Z"/></g><path class="cls-12" d="M565.78,147.2C582.93,68.86,613.92,25.93,635,51.31s24.26,109.46,7.1,187.81S594,360.37,572.88,335,548.62,225.53,565.78,147.2Z"/><path class="cls-13" d="M1866.86,420.42c-5-122.09,12-200,37.88-174s50.89,146,55.85,268.09-12,200-37.89,174S1871.81,542.5,1866.86,420.42Z"/></g></g></g></svg>