<svg xmlns="http://www.w3.org/2000/svg" xmlns:xlink="http://www.w3.org/1999/xlink" viewBox="0 0 97.27 237.94"><defs><style>.cls-1{isolation:isolate;}.cls-2,.cls-3{mix-blend-mode:screen;}.cls-2{fill:url(#radial-gradient);}.cls-3{opacity:0.6;fill:url(#radial-gradient-2);}.cls-10,.cls-11,.cls-12,.cls-13,.cls-14,.cls-15,.cls-16,.cls-17,.cls-18,.cls-19,.cls-20,.cls-21,.cls-22,.cls-23,.cls-24,.cls-4,.cls-5,.cls-6,.cls-7,.cls-8,.cls-9{mix-blend-mode:color-dodge;}.cls-4{fill:url(#radial-gradient-3);}.cls-5{fill:url(#radial-gradient-4);}.cls-6{fill:url(#radial-gradient-5);}.cls-7{fill:url(#radial-gradient-6);}.cls-8{opacity:0.5;fill:url(#radial-gradient-7);}.cls-9{fill:url(#radial-gradient-8);}.cls-10{fill:url(#radial-gradient-9);}.cls-11{fill:url(#radial-gradient-10);}.cls-12{fill:url(#radial-gradient-11);}.cls-13{fill:url(#radial-gradient-12);}.cls-14{fill:url(#radial-gradient-13);}.cls-15{fill:url(#radial-gradient-14);}.cls-16{fill:url(#radial-gradient-15);}.cls-17{fill:url(#radial-gradient-16);}.cls-18{fill:url(#radial-gradient-17);}.cls-19{fill:url(#radial-gradient-18);}.cls-20{fill:url(#radial-gradient-19);}.cls-21{fill:url(#radial-gradient-20);}.cls-22{fill:url(#radial-gradient-21);}.cls-23{fill:url(#radial-gradient-22);}.cls-24{fill:url(#radial-gradient-23);}</style><radialGradient id="radial-gradient" cx="-10398.03" cy="-916.56" r="137.23" gradientTransform="matrix(0.12, 0.06, -0.04, 0.35, 1285.41, 1098.32)" gradientUnits="userSpaceOnUse"><stop offset="0" stop-color="#ba4d00"/><stop offset="0.19" stop-color="#8c3a00"/><stop offset="0.47" stop-color="#502100"/><stop offset="0.71" stop-color="#250f00"/><stop offset="0.89" stop-color="#0a0400"/><stop offset="1"/></radialGradient><radialGradient id="radial-gradient-2" cx="-10483.42" cy="-978.79" r="60.53" gradientTransform="matrix(0.08, 0.04, -0.02, 0.21, 894.8, 875.35)" gradientUnits="userSpaceOnUse"><stop offset="0" stop-color="#ffdc85"/><stop offset="0.11" stop-color="#d9bc71"/><stop offset="0.36" stop-color="#8d7a4a"/><stop offset="0.58" stop-color="#51452a"/><stop offset="0.77" stop-color="#252013"/><stop offset="0.91" stop-color="#0a0905"/><stop offset="1"/></radialGradient><radialGradient id="radial-gradient-3" cx="-10754.13" cy="-919.95" r="137.26" gradientTransform="matrix(0.07, 0.05, -0.05, 0.34, 842.32, 1001.03)" gradientUnits="userSpaceOnUse"><stop offset="0" stop-color="#ba8f00"/><stop offset="0.19" stop-color="#8c6c00"/><stop offset="0.47" stop-color="#503e00"/><stop offset="0.71" stop-color="#251c00"/><stop offset="0.89" stop-color="#0a0800"/><stop offset="1"/></radialGradient><radialGradient id="radial-gradient-4" cx="-10965.13" cy="-800.72" r="167.69" xlink:href="#radial-gradient-3"/><radialGradient id="radial-gradient-5" cx="-11315.07" cy="-806.24" r="151.99" xlink:href="#radial-gradient-3"/><radialGradient id="radial-gradient-6" cx="-11174.38" cy="-800.38" r="151.98" xlink:href="#radial-gradient-3"/><radialGradient id="radial-gradient-7" cx="-11597.56" cy="-1021.53" r="115.71" gradientTransform="matrix(0.07, 0.05, -0.05, 0.34, 842.32, 1001.03)" xlink:href="#radial-gradient"/><radialGradient id="radial-gradient-8" cx="-47.81" cy="1577.72" r="74.51" gradientTransform="matrix(0.05, -0.61, 0.06, 0, -44.21, 90.69)" gradientUnits="userSpaceOnUse"><stop offset="0" stop-color="#ffefce"/><stop offset="0.02" stop-color="#efe0c1"/><stop offset="0.13" stop-color="#a89d87"/><stop offset="0.24" stop-color="#6c6557"/><stop offset="0.33" stop-color="#3d3932"/><stop offset="0.41" stop-color="#1c1a16"/><stop offset="0.48" stop-color="#070706"/><stop offset="0.53"/></radialGradient><radialGradient id="radial-gradient-9" cx="12.52" cy="1564.46" r="52.79" xlink:href="#radial-gradient-8"/><radialGradient id="radial-gradient-10" cx="341.2" cy="1525.36" r="52.79" gradientTransform="matrix(0.03, -0.31, 0.06, 0, -51.19, 168.07)" xlink:href="#radial-gradient-8"/><radialGradient id="radial-gradient-11" cx="312.29" cy="1554.13" r="52.8" gradientTransform="matrix(0.03, -0.31, 0.06, 0, -51.19, 168.07)" xlink:href="#radial-gradient-8"/><radialGradient id="radial-gradient-12" cx="409.74" cy="1533.72" r="35.4" gradientTransform="matrix(0.03, -0.31, 0.06, 0, -51.19, 168.07)" xlink:href="#radial-gradient-8"/><radialGradient id="radial-gradient-13" cx="137.9" cy="1869.56" r="37.27" gradientTransform="matrix(0.01, -0.62, 0.06, 0, -48.91, 105.4)" xlink:href="#radial-gradient-8"/><radialGradient id="radial-gradient-14" cx="-57.42" cy="2086.15" r="52.83" gradientTransform="matrix(0.12, -0.6, 0.06, 0.01, -34.75, 65.49)" xlink:href="#radial-gradient-8"/><radialGradient id="radial-gradient-15" cx="211.14" cy="1250.1" r="52.82" gradientTransform="matrix(0.01, -0.31, 0.06, 0, -50.66, 183.24)" xlink:href="#radial-gradient-8"/><radialGradient id="radial-gradient-16" cx="333.07" cy="2070.93" r="52.78" gradientTransform="matrix(0.03, -0.31, 0.06, 0, -51.57, 167.66)" xlink:href="#radial-gradient-8"/><radialGradient id="radial-gradient-17" cx="45.45" cy="3716.62" r="52.8" gradientTransform="matrix(0.11, -0.53, 0.21, 0.04, -747.32, 15.72)" xlink:href="#radial-gradient-8"/><radialGradient id="radial-gradient-18" cx="152.12" cy="3571.27" r="34.07" gradientTransform="matrix(0.11, -0.53, 0.21, 0.04, -747.32, 15.72)" xlink:href="#radial-gradient-8"/><radialGradient id="radial-gradient-19" cx="158.92" cy="3720.72" r="34.07" gradientTransform="matrix(0.11, -0.53, 0.21, 0.04, -747.32, 15.72)" xlink:href="#radial-gradient-8"/><radialGradient id="radial-gradient-20" cx="270.24" cy="3631.24" r="34.07" gradientTransform="matrix(0.11, -0.53, 0.21, 0.04, -747.32, 15.72)" xlink:href="#radial-gradient-8"/><radialGradient id="radial-gradient-21" cx="61.51" cy="3504.89" r="34.07" gradientTransform="matrix(0.03, -0.54, 0.22, 0.01, -759.95, 138.01)" xlink:href="#radial-gradient-8"/><radialGradient id="radial-gradient-22" cx="219.37" cy="3672.15" r="34.06" gradientTransform="matrix(0.11, -0.53, 0.21, 0.04, -747.32, 15.72)" xlink:href="#radial-gradient-8"/><radialGradient id="radial-gradient-23" cx="279.69" cy="1258.43" r="35.41" gradientTransform="matrix(0.01, -0.31, 0.06, 0, -50.66, 183.24)" xlink:href="#radial-gradient-8"/></defs><g class="cls-1"><g id="图层_2" data-name="图层 2"><g id="Layer_1" data-name="Layer 1"><g id="_3" data-name="3"><path class="cls-2" d="M81.07,147C78,173.27,68.23,190.88,58.93,186.14S44.76,156.3,47.89,130,60.86,86.17,70,90.84,84.12,120.65,81.07,147Z"/><path class="cls-3" d="M60.65,227.31c-.83,7.13-3.69,11.8-6.49,10.37s-4.32-8.33-3.47-15.47,3.73-11.78,6.49-10.37S61.49,220.16,60.65,227.31Z"/><path class="cls-4" d="M95,136.32c-4,26.11-11.75,44.17-17.52,40.21s-7.08-28.29-3-54.36S86.24,78.07,91.92,82,99,110.22,95,136.32Z"/><path class="cls-5" d="M75.15,168c-4.88,31.9-14.35,54-21.4,49.11S45.09,182.6,50,150.75s14.46-53.88,21.39-49.11S80,136.15,75.15,168Z"/><path class="cls-6" d="M48,147.27c-4.43,28.91-13,48.9-19.4,44.51s-7.85-31.31-3.38-60.18S38.37,82.76,44.65,87.08,52.45,118.37,48,147.27Z"/><path class="cls-7" d="M58.27,156.55c-4.43,28.91-13,48.9-19.4,44.51S31,169.75,35.5,140.88,48.6,92,54.89,96.36,62.69,127.65,58.27,156.55Z"/><path class="cls-8" d="M35.49,56.71c-3.37,22-9.91,37.22-14.77,33.88s-6-23.84-2.57-45.81,10-37.18,14.76-33.89S38.85,34.71,35.49,56.71Z"/><path class="cls-9" d="M46.05,82.1c2.32.2,2.41,20.84.21,46.1s-5.87,45.56-8.19,45.36-2.41-20.84-.2-46.09S43.73,81.9,46.05,82.1Z"/><path class="cls-10" d="M47.37,58.35c1.64.14,1.71,14.77.15,32.66s-4.16,32.28-5.8,32.14S40,108.39,41.58,90.49,45.73,58.21,47.37,58.35Z"/><path class="cls-11" d="M45.31,53.77c1.65.15,2.34,7.58,1.55,16.6s-2.75,16.21-4.39,16.06-2.34-7.56-1.55-16.58S43.67,53.63,45.31,53.77Z"/><path class="cls-12" d="M46.15,62.86c1.65.14,2.34,7.57,1.55,16.59S45,95.66,43.31,95.52,41,87.94,41.76,78.93,44.52,62.71,46.15,62.86Z"/><path class="cls-13" d="M47.16,38c1.1.1,1.57,5.08,1,11.13S46.35,60,45.25,59.9s-1.56-5.08-1-11.12S46.06,37.91,47.16,38Z"/><path class="cls-14" d="M59.05,0c1.16,0,1.87,10.32,1.58,23S59.18,45.92,58,45.89s-1.87-10.32-1.58-23S57.88,0,59.05,0Z"/><path class="cls-15" d="M80.19,91.32c1.61.32.08,14.86-3.43,32.48s-7.65,31.64-9.27,31.32-.08-14.87,3.42-32.48S78.57,91,80.19,91.32Z"/><path class="cls-16" d="M21.75,103c1.64,0,2.81,7.4,2.61,16.45s-1.7,16.36-3.35,16.32-2.82-7.4-2.61-16.45S20.1,102.94,21.75,103Z"/><path class="cls-17" d="M75.44,58.58c1.64.15,2.33,7.58,1.54,16.59s-2.75,16.22-4.39,16.07S70.25,83.67,71,74.66,73.79,58.44,75.44,58.58Z"/><path class="cls-18" d="M60.7,122.18c6.26,1.25,8.82,14.87,5.73,30.43s-10.68,27.17-16.94,25.92-8.82-14.87-5.73-30.43S54.45,120.94,60.7,122.18Z"/><path class="cls-19" d="M38.85,69.06c4,.8,5.69,9.59,3.69,19.63s-6.89,17.53-10.93,16.72-5.69-9.59-3.69-19.63S34.81,68.25,38.85,69.06Z"/><path class="cls-20" d="M71.64,71.82c4,.8,5.7,9.59,3.7,19.63S68.45,109,64.41,108.18s-5.69-9.6-3.69-19.64S67.61,71,71.64,71.82Z"/><path class="cls-21" d="M64.27,8.6c4,.8,5.69,9.59,3.69,19.63S61.07,45.76,57,45s-5.69-9.59-3.69-19.63S60.23,7.79,64.27,8.6Z"/><path class="cls-22" d="M8.72,135.25c4.11.26,6.91,8.76,6.25,19s-4.51,18.28-8.62,18-6.91-8.76-6.25-19S4.61,135,8.72,135.25Z"/><path class="cls-23" d="M67.64,37.49c4,.81,5.69,9.6,3.69,19.64S64.44,74.65,60.41,73.85s-5.69-9.59-3.7-19.63S63.61,36.69,67.64,37.49Z"/><path class="cls-24" d="M22.58,87.12c1.1,0,1.88,5,1.75,11s-1.15,11-2.25,10.95-1.89-5-1.75-11S21.47,87.1,22.58,87.12Z"/></g></g></g></g></svg>